<?xml version="1.0" encoding="UTF-8" standalone="no"?>
<svg
   xmlns:dc="http://purl.org/dc/elements/1.1/"
   xmlns:cc="http://creativecommons.org/ns#"
   xmlns:rdf="http://www.w3.org/1999/02/22-rdf-syntax-ns#"
   xmlns:svg="http://www.w3.org/2000/svg"
   xmlns="http://www.w3.org/2000/svg"
   viewBox="0 0 576 384"
   height="384"
   width="576"
   xml:space="preserve"
   id="svg2"
   version="1.1"><metadata
     id="metadata8"><rdf:RDF><cc:Work
         rdf:about=""><dc:format>image/svg+xml</dc:format><dc:type
           rdf:resource="http://purl.org/dc/dcmitype/StillImage" /></cc:Work></rdf:RDF></metadata><defs
     id="defs6"><clipPath
       id="clipPath22"
       clipPathUnits="userSpaceOnUse"><path
         id="path20"
         d="M 54,36 H 388.8 V 253.44 H 54 Z" /></clipPath><clipPath
       id="clipPath40"
       clipPathUnits="userSpaceOnUse"><path
         id="path38"
         d="M 54,36 H 388.8 V 253.44 H 54 Z" /></clipPath><clipPath
       id="clipPath58"
       clipPathUnits="userSpaceOnUse"><path
         id="path56"
         d="M 54,36 H 388.8 V 253.44 H 54 Z" /></clipPath><clipPath
       id="clipPath76"
       clipPathUnits="userSpaceOnUse"><path
         id="path74"
         d="M 54,36 H 388.8 V 253.44 H 54 Z" /></clipPath><clipPath
       id="clipPath94"
       clipPathUnits="userSpaceOnUse"><path
         id="path92"
         d="M 54,36 H 388.8 V 253.44 H 54 Z" /></clipPath><clipPath
       id="clipPath112"
       clipPathUnits="userSpaceOnUse"><path
         id="path110"
         d="M 54,36 H 388.8 V 253.44 H 54 Z" /></clipPath><clipPath
       id="clipPath130"
       clipPathUnits="userSpaceOnUse"><path
         id="path128"
         d="M 54,36 H 388.8 V 253.44 H 54 Z" /></clipPath><clipPath
       id="clipPath152"
       clipPathUnits="userSpaceOnUse"><path
         id="path150"
         d="M 54,36 H 388.8 V 253.44 H 54 Z" /></clipPath><clipPath
       id="clipPath170"
       clipPathUnits="userSpaceOnUse"><path
         id="path168"
         d="M 54,36 H 388.8 V 253.44 H 54 Z" /></clipPath><clipPath
       id="clipPath188"
       clipPathUnits="userSpaceOnUse"><path
         id="path186"
         d="M 54,36 H 388.8 V 253.44 H 54 Z" /></clipPath><clipPath
       id="clipPath206"
       clipPathUnits="userSpaceOnUse"><path
         id="path204"
         d="M 54,36 H 388.8 V 253.44 H 54 Z" /></clipPath><clipPath
       id="clipPath232"
       clipPathUnits="userSpaceOnUse"><path
         id="path230"
         d="M 54,36 H 388.8 V 253.44 H 54 Z" /></clipPath><clipPath
       id="clipPath242"
       clipPathUnits="userSpaceOnUse"><path
         id="path240"
         d="M 54,36 H 388.8 V 253.44 H 54 Z" /></clipPath><clipPath
       id="clipPath252"
       clipPathUnits="userSpaceOnUse"><path
         id="path250"
         d="M 54,36 H 388.8 V 253.44 H 54 Z" /></clipPath><clipPath
       id="clipPath262"
       clipPathUnits="userSpaceOnUse"><path
         id="path260"
         d="M 54,36 H 388.8 V 253.44 H 54 Z" /></clipPath><clipPath
       id="clipPath272"
       clipPathUnits="userSpaceOnUse"><path
         id="path270"
         d="M 54,36 H 388.8 V 253.44 H 54 Z" /></clipPath></defs><g
     transform="matrix(1.3333333,0,0,-1.3333333,0,384)"
     id="g10"><path
       id="path12"
       style="fill:#ffffff;fill-opacity:1;fill-rule:nonzero;stroke:none"
       d="M 0,0 H 432 V 288 H 0 Z" /><path
       id="path14"
       style="fill:#ffffff;fill-opacity:1;fill-rule:nonzero;stroke:none"
       d="M 54,36 H 388.8 V 253.44 H 54 Z" /><g
       id="g16"><g
         clip-path="url(#clipPath22)"
         id="g18"><path
           id="path24"
           style="fill:none;stroke:#b0b0b0;stroke-width:0.80000001;stroke-linecap:square;stroke-linejoin:round;stroke-miterlimit:10;stroke-dasharray:none;stroke-opacity:1"
           d="M 58.348052,36 V 253.44" /></g></g><g
       id="g26"><path
         id="path28"
         style="fill:#000000;fill-opacity:1;fill-rule:nonzero;stroke:#000000;stroke-width:0.80000001;stroke-linecap:butt;stroke-linejoin:round;stroke-miterlimit:10;stroke-dasharray:none;stroke-opacity:1"
         d="M 58.348052,36 V 32.5" /><text
         id="text32"
         style="font-variant:normal;font-weight:normal;font-size:10px;font-family:'DejaVu Sans';-inkscape-font-specification:DejaVuSans;writing-mode:lr-tb;fill:#000000;fill-opacity:1;fill-rule:nonzero;stroke:none"
         transform="matrix(1,0,0,-1,45.629302,21.40625)"><tspan
           id="tspan30"
           y="0"
           x="0 6.3600001 12.72 19.08">1990</tspan></text>
</g><g
       id="g34"><g
         clip-path="url(#clipPath40)"
         id="g36"><path
           id="path42"
           style="fill:none;stroke:#b0b0b0;stroke-width:0.80000001;stroke-linecap:square;stroke-linejoin:round;stroke-miterlimit:10;stroke-dasharray:none;stroke-opacity:1"
           d="M 112.6987,36 V 253.44" /></g></g><g
       id="g44"><path
         id="path46"
         style="fill:#000000;fill-opacity:1;fill-rule:nonzero;stroke:#000000;stroke-width:0.80000001;stroke-linecap:butt;stroke-linejoin:round;stroke-miterlimit:10;stroke-dasharray:none;stroke-opacity:1"
         d="M 112.6987,36 V 32.5" /><text
         id="text50"
         style="font-variant:normal;font-weight:normal;font-size:10px;font-family:'DejaVu Sans';-inkscape-font-specification:DejaVuSans;writing-mode:lr-tb;fill:#000000;fill-opacity:1;fill-rule:nonzero;stroke:none"
         transform="matrix(1,0,0,-1,99.979951,21.40625)"><tspan
           id="tspan48"
           y="0"
           x="0 6.3600001 12.72 19.08">1995</tspan></text>
</g><g
       id="g52"><g
         clip-path="url(#clipPath58)"
         id="g54"><path
           id="path60"
           style="fill:none;stroke:#b0b0b0;stroke-width:0.80000001;stroke-linecap:square;stroke-linejoin:round;stroke-miterlimit:10;stroke-dasharray:none;stroke-opacity:1"
           d="M 167.04935,36 V 253.44" /></g></g><g
       id="g62"><path
         id="path64"
         style="fill:#000000;fill-opacity:1;fill-rule:nonzero;stroke:#000000;stroke-width:0.80000001;stroke-linecap:butt;stroke-linejoin:round;stroke-miterlimit:10;stroke-dasharray:none;stroke-opacity:1"
         d="M 167.04935,36 V 32.5" /><text
         id="text68"
         style="font-variant:normal;font-weight:normal;font-size:10px;font-family:'DejaVu Sans';-inkscape-font-specification:DejaVuSans;writing-mode:lr-tb;fill:#000000;fill-opacity:1;fill-rule:nonzero;stroke:none"
         transform="matrix(1,0,0,-1,154.3306,21.40625)"><tspan
           id="tspan66"
           y="0"
           x="0 6.3600001 12.72 19.08">2000</tspan></text>
</g><g
       id="g70"><g
         clip-path="url(#clipPath76)"
         id="g72"><path
           id="path78"
           style="fill:none;stroke:#b0b0b0;stroke-width:0.80000001;stroke-linecap:square;stroke-linejoin:round;stroke-miterlimit:10;stroke-dasharray:none;stroke-opacity:1"
           d="M 221.4,36 V 253.44" /></g></g><g
       id="g80"><path
         id="path82"
         style="fill:#000000;fill-opacity:1;fill-rule:nonzero;stroke:#000000;stroke-width:0.80000001;stroke-linecap:butt;stroke-linejoin:round;stroke-miterlimit:10;stroke-dasharray:none;stroke-opacity:1"
         d="M 221.4,36 V 32.5" /><text
         id="text86"
         style="font-variant:normal;font-weight:normal;font-size:10px;font-family:'DejaVu Sans';-inkscape-font-specification:DejaVuSans;writing-mode:lr-tb;fill:#000000;fill-opacity:1;fill-rule:nonzero;stroke:none"
         transform="matrix(1,0,0,-1,208.68125,21.40625)"><tspan
           id="tspan84"
           y="0"
           x="0 6.3600001 12.72 19.08">2005</tspan></text>
</g><g
       id="g88"><g
         clip-path="url(#clipPath94)"
         id="g90"><path
           id="path96"
           style="fill:none;stroke:#b0b0b0;stroke-width:0.80000001;stroke-linecap:square;stroke-linejoin:round;stroke-miterlimit:10;stroke-dasharray:none;stroke-opacity:1"
           d="M 275.75065,36 V 253.44" /></g></g><g
       id="g98"><path
         id="path100"
         style="fill:#000000;fill-opacity:1;fill-rule:nonzero;stroke:#000000;stroke-width:0.80000001;stroke-linecap:butt;stroke-linejoin:round;stroke-miterlimit:10;stroke-dasharray:none;stroke-opacity:1"
         d="M 275.75065,36 V 32.5" /><text
         id="text104"
         style="font-variant:normal;font-weight:normal;font-size:10px;font-family:'DejaVu Sans';-inkscape-font-specification:DejaVuSans;writing-mode:lr-tb;fill:#000000;fill-opacity:1;fill-rule:nonzero;stroke:none"
         transform="matrix(1,0,0,-1,263.0319,21.40625)"><tspan
           id="tspan102"
           y="0"
           x="0 6.3600001 12.72 19.08">2010</tspan></text>
</g><g
       id="g106"><g
         clip-path="url(#clipPath112)"
         id="g108"><path
           id="path114"
           style="fill:none;stroke:#b0b0b0;stroke-width:0.80000001;stroke-linecap:square;stroke-linejoin:round;stroke-miterlimit:10;stroke-dasharray:none;stroke-opacity:1"
           d="M 330.1013,36 V 253.44" /></g></g><g
       id="g116"><path
         id="path118"
         style="fill:#000000;fill-opacity:1;fill-rule:nonzero;stroke:#000000;stroke-width:0.80000001;stroke-linecap:butt;stroke-linejoin:round;stroke-miterlimit:10;stroke-dasharray:none;stroke-opacity:1"
         d="M 330.1013,36 V 32.5" /><text
         id="text122"
         style="font-variant:normal;font-weight:normal;font-size:10px;font-family:'DejaVu Sans';-inkscape-font-specification:DejaVuSans;writing-mode:lr-tb;fill:#000000;fill-opacity:1;fill-rule:nonzero;stroke:none"
         transform="matrix(1,0,0,-1,317.38255,21.40625)"><tspan
           id="tspan120"
           y="0"
           x="0 6.3600001 12.72 19.08">2015</tspan></text>
</g><g
       id="g124"><g
         clip-path="url(#clipPath130)"
         id="g126"><path
           id="path132"
           style="fill:none;stroke:#b0b0b0;stroke-width:0.80000001;stroke-linecap:square;stroke-linejoin:round;stroke-miterlimit:10;stroke-dasharray:none;stroke-opacity:1"
           d="M 384.45195,36 V 253.44" /></g></g><g
       id="g134"><path
         id="path136"
         style="fill:#000000;fill-opacity:1;fill-rule:nonzero;stroke:#000000;stroke-width:0.80000001;stroke-linecap:butt;stroke-linejoin:round;stroke-miterlimit:10;stroke-dasharray:none;stroke-opacity:1"
         d="M 384.45195,36 V 32.5" /><text
         id="text140"
         style="font-variant:normal;font-weight:normal;font-size:10px;font-family:'DejaVu Sans';-inkscape-font-specification:DejaVuSans;writing-mode:lr-tb;fill:#000000;fill-opacity:1;fill-rule:nonzero;stroke:none"
         transform="matrix(1,0,0,-1,371.7332,21.40625)"><tspan
           id="tspan138"
           y="0"
           x="0 6.3600001 12.72 19.08">2020</tspan></text>
<text
         id="text144"
         style="font-variant:normal;font-weight:normal;font-size:10px;font-family:'DejaVu Sans';-inkscape-font-specification:DejaVuSans;writing-mode:lr-tb;fill:#000000;fill-opacity:1;fill-rule:nonzero;stroke:none"
         transform="matrix(1,0,0,-1,210.15781,7.734375)"><tspan
           id="tspan142"
           y="0"
           x="0 6.1100001 12.26 18.389999">Year</tspan></text>
</g><g
       id="g146"><g
         clip-path="url(#clipPath152)"
         id="g148"><path
           id="path154"
           style="fill:none;stroke:#b0b0b0;stroke-width:0.80000001;stroke-linecap:square;stroke-linejoin:round;stroke-miterlimit:10;stroke-dasharray:none;stroke-opacity:1"
           d="M 54,68.489481 H 388.8" /></g></g><g
       id="g156"><path
         id="path158"
         style="fill:#000000;fill-opacity:1;fill-rule:nonzero;stroke:#000000;stroke-width:0.80000001;stroke-linecap:butt;stroke-linejoin:round;stroke-miterlimit:10;stroke-dasharray:none;stroke-opacity:1"
         d="M 54,68.489481 H 50.5" /><text
         id="text162"
         style="font-variant:normal;font-weight:normal;font-size:10px;font-family:'DejaVu Sans';-inkscape-font-specification:DejaVuSans;writing-mode:lr-tb;fill:#000000;fill-opacity:1;fill-rule:nonzero;stroke:none"
         transform="matrix(1,0,0,-1,27.921875,64.692606)"><tspan
           id="tspan160"
           y="0"
           x="0 6.3600001 12.72">100</tspan></text>
</g><g
       id="g164"><g
         clip-path="url(#clipPath170)"
         id="g166"><path
           id="path172"
           style="fill:none;stroke:#b0b0b0;stroke-width:0.80000001;stroke-linecap:square;stroke-linejoin:round;stroke-miterlimit:10;stroke-dasharray:none;stroke-opacity:1"
           d="M 54,115.72051 H 388.8" /></g></g><g
       id="g174"><path
         id="path176"
         style="fill:#000000;fill-opacity:1;fill-rule:nonzero;stroke:#000000;stroke-width:0.80000001;stroke-linecap:butt;stroke-linejoin:round;stroke-miterlimit:10;stroke-dasharray:none;stroke-opacity:1"
         d="M 54,115.72051 H 50.5" /><text
         id="text180"
         style="font-variant:normal;font-weight:normal;font-size:10px;font-family:'DejaVu Sans';-inkscape-font-specification:DejaVuSans;writing-mode:lr-tb;fill:#000000;fill-opacity:1;fill-rule:nonzero;stroke:none"
         transform="matrix(1,0,0,-1,27.921875,111.92364)"><tspan
           id="tspan178"
           y="0"
           x="0 6.3600001 12.72">200</tspan></text>
</g><g
       id="g182"><g
         clip-path="url(#clipPath188)"
         id="g184"><path
           id="path190"
           style="fill:none;stroke:#b0b0b0;stroke-width:0.80000001;stroke-linecap:square;stroke-linejoin:round;stroke-miterlimit:10;stroke-dasharray:none;stroke-opacity:1"
           d="M 54,162.95155 H 388.8" /></g></g><g
       id="g192"><path
         id="path194"
         style="fill:#000000;fill-opacity:1;fill-rule:nonzero;stroke:#000000;stroke-width:0.80000001;stroke-linecap:butt;stroke-linejoin:round;stroke-miterlimit:10;stroke-dasharray:none;stroke-opacity:1"
         d="M 54,162.95155 H 50.5" /><text
         id="text198"
         style="font-variant:normal;font-weight:normal;font-size:10px;font-family:'DejaVu Sans';-inkscape-font-specification:DejaVuSans;writing-mode:lr-tb;fill:#000000;fill-opacity:1;fill-rule:nonzero;stroke:none"
         transform="matrix(1,0,0,-1,27.921875,159.15467)"><tspan
           id="tspan196"
           y="0"
           x="0 6.3600001 12.72">300</tspan></text>
</g><g
       id="g200"><g
         clip-path="url(#clipPath206)"
         id="g202"><path
           id="path208"
           style="fill:none;stroke:#b0b0b0;stroke-width:0.80000001;stroke-linecap:square;stroke-linejoin:round;stroke-miterlimit:10;stroke-dasharray:none;stroke-opacity:1"
           d="M 54,210.18258 H 388.8" /></g></g><g
       id="g210"><path
         id="path212"
         style="fill:#000000;fill-opacity:1;fill-rule:nonzero;stroke:#000000;stroke-width:0.80000001;stroke-linecap:butt;stroke-linejoin:round;stroke-miterlimit:10;stroke-dasharray:none;stroke-opacity:1"
         d="M 54,210.18258 H 50.5" /><text
         id="text216"
         style="font-variant:normal;font-weight:normal;font-size:10px;font-family:'DejaVu Sans';-inkscape-font-specification:DejaVuSans;writing-mode:lr-tb;fill:#000000;fill-opacity:1;fill-rule:nonzero;stroke:none"
         transform="matrix(1,0,0,-1,27.921875,206.3857)"><tspan
           id="tspan214"
           y="0"
           x="0 6.3600001 12.72">400</tspan></text>
<text
         id="text220"
         style="font-variant:normal;font-weight:normal;font-size:10px;font-family:'DejaVu Sans';-inkscape-font-specification:DejaVuSans;writing-mode:lr-tb;fill:#000000;fill-opacity:1;fill-rule:nonzero;stroke:none"
         transform="matrix(0,1,1,0,10.653125,51.555937)"><tspan
           id="tspan218"
           y="0"
           x="0 6.3200002 12.24 18.360001 21.139999 27.48 31.4 34.18 40.299999 46.639999 49.82 55.939999 59.459999 62.639999 66.559998 72.900002 79.050003 82.230003 88.580002 91.360001 94.879997 98.400002 104.55 108.66 114.81 121.15 125.07 128.25 134.60001 140.73 144.84 150.97 160.71001 166.86 170.78 176.92999 181.03999">Evolution of the different parameters</tspan></text>
<text
         id="text224"
         style="font-variant:normal;font-weight:normal;font-size:10px;font-family:'DejaVu Sans';-inkscape-font-specification:DejaVuSans;writing-mode:lr-tb;fill:#000000;fill-opacity:1;fill-rule:nonzero;stroke:none"
         transform="matrix(0,1,1,0,21.84375,97.290312)"><tspan
           id="tspan222"
           y="0"
           x="0 3.9000001 10.25 16.379999 21.59 27.74 30.92 37.279999 43.639999 50 53.18 55.959999 62.299999 65.480003 71.839996 78.199997 84.559998 90.919998">(base 100 in 1991)</tspan></text>
</g><g
       id="g226"><g
         clip-path="url(#clipPath232)"
         id="g228"><path
           id="path234"
           style="fill:none;stroke:#000000;stroke-width:1.5;stroke-linecap:square;stroke-linejoin:round;stroke-miterlimit:10;stroke-dasharray:none;stroke-opacity:1"
           d="m 69.218182,68.489481 10.87013,2.13707 10.87013,0.52467 10.870128,3.852356 10.87013,3.79477 10.87013,4.695923 10.87013,3.616895 10.87013,1.410466 10.87013,4.34273 10.87013,6.135566 10.87013,-2.25173 10.87013,1.945425 10.87013,2.685108 10.87013,12.2397 10.87013,7.80366 10.87013,6.42876 10.87013,8.91419 10.87013,2.44087 10.87013,-1.20426 10.87013,9.43989 10.87013,8.3002 10.87013,7.19396 10.87013,7.78188 10.87013,8.93318 10.87013,11.87689 10.87013,12.58457 10.87013,14.6407 10.87013,14.38977 10.87013,10.41367" /></g></g><g
       id="g236"><g
         clip-path="url(#clipPath242)"
         id="g238"><path
           id="path244"
           style="fill:none;stroke:#0000ff;stroke-width:1.5;stroke-linecap:square;stroke-linejoin:round;stroke-miterlimit:10;stroke-dasharray:none;stroke-opacity:1"
           d="m 69.218182,68.489481 10.87013,0.405225 10.87013,0.83791 10.870128,-1.146021 10.87013,-0.481451 10.87013,-0.888919 10.87013,-0.523844 10.87013,0.357768 10.87013,-0.389224 10.87013,-1.152871 10.87013,1.167432 10.87013,-1.403818 10.87013,-0.147923 10.87013,-1.137173 10.87013,-0.88463 10.87013,-0.481445 10.87013,-0.532971 10.87013,0.42481 10.87013,-0.359299 10.87013,-0.778702 10.87013,0.08412 10.87013,-0.436164 10.87013,-0.310075 10.87013,-0.117029 10.87013,-0.254998 10.87013,-0.02282 10.87013,-0.571434 10.87013,-0.137719 10.87013,-0.292825" /></g></g><g
       id="g246"><g
         clip-path="url(#clipPath252)"
         id="g248"><path
           id="path254"
           style="fill:none;stroke:#008000;stroke-width:1.5;stroke-linecap:square;stroke-linejoin:round;stroke-miterlimit:10;stroke-dasharray:none;stroke-opacity:1"
           d="m 69.218182,68.489481 10.87013,-2.174387 10.87013,-0.996932 10.870128,-0.28493 10.87013,-1.356316 10.87013,-0.558372 10.87013,-0.642481 10.87013,-0.402148 10.87013,-0.857722 10.87013,-0.802497 10.87013,-0.741599 10.87013,0.58066 10.87013,-1.350079 10.87013,-1.995844 10.87013,-0.796887 10.87013,-1.31341 10.87013,-1.295714 10.87013,-1.361478 10.87013,-1.037437 10.87013,-0.277491 10.87013,-1.107712 10.87013,-0.723673 10.87013,-0.729824 10.87013,-0.486425 10.87013,-0.339361 10.87013,-0.614005 10.87013,-0.126109 10.87013,-0.611067 10.87013,-0.202605" /></g></g><g
       id="g256"><g
         clip-path="url(#clipPath262)"
         id="g258"><path
           id="path264"
           style="fill:none;stroke:#ffa500;stroke-width:1.5;stroke-linecap:square;stroke-linejoin:round;stroke-miterlimit:10;stroke-dasharray:none;stroke-opacity:1"
           d="m 69.218182,68.489481 h 10.87013 10.87013 10.870128 10.87013 10.87013 10.87013 10.87013 10.87013 10.87013 10.87013 10.87013 10.87013 10.87013 10.87013 10.87013 10.87013 10.87013 10.87013 10.87013 10.87013 10.87013 10.87013 10.87013 10.87013 10.87013 10.87013 10.87013 10.87013" /></g></g><g
       id="g266"><g
         clip-path="url(#clipPath272)"
         id="g268"><path
           id="path274"
           style="fill:none;stroke:#ff0000;stroke-width:1.5;stroke-linecap:square;stroke-linejoin:round;stroke-miterlimit:10;stroke-dasharray:none;stroke-opacity:1"
           d="m 69.218182,68.489481 10.87013,0.268358 10.87013,0.268359 10.870128,2.146865 10.87013,1.34179 10.87013,2.415224 10.87013,1.610148 10.87013,1.073433 10.87013,1.878507 10.87013,2.146865 10.87013,-1.341791 10.87013,0.536717 10.87013,-0.268358 10.87013,3.757013 10.87013,2.415224 10.87013,0.805074 10.87013,1.878507 10.87013,-0.805074 10.87013,-3.488656 10.87013,3.220298 10.87013,1.878506 10.87013,1.073433 10.87013,1.341791 10.87013,2.683581 10.87013,4.025372 10.87013,3.757013 10.87013,4.83045 10.87013,3.75701 10.87013,2.95194" /></g></g><g
       id="g276"><path
         id="path278"
         style="fill:none;stroke:#000000;stroke-width:0.80000001;stroke-linecap:square;stroke-linejoin:miter;stroke-miterlimit:10;stroke-dasharray:none;stroke-opacity:1"
         d="M 54,36 V 253.44" /><path
         id="path280"
         style="fill:none;stroke:#000000;stroke-width:0.80000001;stroke-linecap:square;stroke-linejoin:miter;stroke-miterlimit:10;stroke-dasharray:none;stroke-opacity:1"
         d="M 388.8,36 V 253.44" /><path
         id="path282"
         style="fill:none;stroke:#000000;stroke-width:0.80000001;stroke-linecap:square;stroke-linejoin:miter;stroke-miterlimit:10;stroke-dasharray:none;stroke-opacity:1"
         d="M 54,36 H 388.8" /><path
         id="path284"
         style="fill:none;stroke:#000000;stroke-width:0.80000001;stroke-linecap:square;stroke-linejoin:miter;stroke-miterlimit:10;stroke-dasharray:none;stroke-opacity:1"
         d="M 54,253.44 H 388.8" /><text
         id="text288"
         style="font-variant:normal;font-weight:normal;font-size:12px;font-family:'DejaVu Sans';-inkscape-font-specification:DejaVuSans;writing-mode:lr-tb;fill:#000000;fill-opacity:1;fill-rule:nonzero;stroke:none"
         transform="matrix(1,0,0,-1,142.025,259.44)"><tspan
           id="tspan286"
           y="0"
           x="0 7.8720002 15.228 22.332001 29.688 33.504002 40.883999 48.504002 56.112 63.467999 68.171997 71.508003 78.851997 86.459999 90.276001 94.5 101.844 106.776 110.592 117.948 125.052 128.388 135.744 140.448 143.784 151.12801">Kaya equation for aviation</tspan></text>
<path
         id="path290"
         style="fill:#ffffff;fill-opacity:0.8;fill-rule:nonzero;stroke:#cccccc;stroke-width:1;stroke-linecap:butt;stroke-linejoin:miter;stroke-miterlimit:10;stroke-dasharray:none;stroke-opacity:0.8"
         d="m 61,172.08062 h 74.67187 c 1.33334,0 2,0.66667 2,2 V 246.44 c 0,1.33333 -0.66666,2 -2,2 H 61 c -1.333333,0 -2,-0.66667 -2,-2 v -72.35938 c 0,-1.33333 0.666667,-2 2,-2 z" /><path
         id="path292"
         style="fill:none;stroke:#000000;stroke-width:1.5;stroke-linecap:square;stroke-linejoin:round;stroke-miterlimit:10;stroke-dasharray:none;stroke-opacity:1"
         d="M 63,240.34625 H 83" /><text
         id="text296"
         style="font-variant:normal;font-weight:normal;font-size:10px;font-family:'DejaVu Sans';-inkscape-font-specification:DejaVuSans;writing-mode:lr-tb;fill:#000000;fill-opacity:1;fill-rule:nonzero;stroke:none"
         transform="matrix(1,0,0,-1,91,236.84625)"><tspan
           id="tspan294"
           y="0"
           x="0 6.9499998 12.98">RPK</tspan></text>
<path
         id="path298"
         style="fill:none;stroke:#0000ff;stroke-width:1.5;stroke-linecap:square;stroke-linejoin:round;stroke-miterlimit:10;stroke-dasharray:none;stroke-opacity:1"
         d="M 63,225.67437 H 83" /><text
         id="text302"
         style="font-variant:normal;font-weight:normal;font-size:10px;font-family:'DejaVu Sans';-inkscape-font-specification:DejaVuSans;writing-mode:lr-tb;fill:#000000;fill-opacity:1;fill-rule:nonzero;stroke:none"
         transform="matrix(1,0,0,-1,91,222.17437)"><tspan
           id="tspan300"
           y="0"
           x="0 6.8400002 13.19 19.75 23.120001 30.07 36.099998">ASK/RPK</tspan></text>
<path
         id="path304"
         style="fill:none;stroke:#008000;stroke-width:1.5;stroke-linecap:square;stroke-linejoin:round;stroke-miterlimit:10;stroke-dasharray:none;stroke-opacity:1"
         d="M 63,211.0025 H 83" /><text
         id="text308"
         style="font-variant:normal;font-weight:normal;font-size:10px;font-family:'DejaVu Sans';-inkscape-font-specification:DejaVuSans;writing-mode:lr-tb;fill:#000000;fill-opacity:1;fill-rule:nonzero;stroke:none"
         transform="matrix(1,0,0,-1,91,207.5025)"><tspan
           id="tspan306"
           y="0"
           x="0 6.3200002 9.6899996 16.530001 22.879999">E/ASK</tspan></text>
<path
         id="path310"
         style="fill:none;stroke:#ffa500;stroke-width:1.5;stroke-linecap:square;stroke-linejoin:round;stroke-miterlimit:10;stroke-dasharray:none;stroke-opacity:1"
         d="M 63,196.33062 H 83" /><text
         id="text314"
         style="font-variant:normal;font-weight:normal;font-size:10px;font-family:'DejaVu Sans';-inkscape-font-specification:DejaVuSans;writing-mode:lr-tb;fill:#000000;fill-opacity:1;fill-rule:nonzero;stroke:none"
         transform="matrix(1,0,0,-1,91,192.83062)"><tspan
           id="tspan312"
           y="0"
           x="0 6.98 14.85 21.209999 24.58">CO2/E</tspan></text>
<path
         id="path316"
         style="fill:none;stroke:#ff0000;stroke-width:1.5;stroke-linecap:square;stroke-linejoin:round;stroke-miterlimit:10;stroke-dasharray:none;stroke-opacity:1"
         d="M 63,181.65875 H 83" /><text
         id="text320"
         style="font-variant:normal;font-weight:normal;font-size:10px;font-family:'DejaVu Sans';-inkscape-font-specification:DejaVuSans;writing-mode:lr-tb;fill:#000000;fill-opacity:1;fill-rule:nonzero;stroke:none"
         transform="matrix(1,0,0,-1,91,178.15875)"><tspan
           id="tspan318"
           y="0"
           x="0 6.98 14.85">CO2</tspan></text>
</g></g></svg>