<?xml version="1.0" encoding="UTF-8" standalone="no"?>
<svg
   xmlns:dc="http://purl.org/dc/elements/1.1/"
   xmlns:cc="http://creativecommons.org/ns#"
   xmlns:rdf="http://www.w3.org/1999/02/22-rdf-syntax-ns#"
   xmlns:svg="http://www.w3.org/2000/svg"
   xmlns="http://www.w3.org/2000/svg"
   viewBox="0 0 576 384"
   height="384"
   width="576"
   xml:space="preserve"
   id="svg2"
   version="1.1"><metadata
     id="metadata8"><rdf:RDF><cc:Work
         rdf:about=""><dc:format>image/svg+xml</dc:format><dc:type
           rdf:resource="http://purl.org/dc/dcmitype/StillImage" /></cc:Work></rdf:RDF></metadata><defs
     id="defs6"><clipPath
       id="clipPath20"
       clipPathUnits="userSpaceOnUse"><path
         id="path18"
         d="M 54,36 H 388.8 V 253.44 H 54 Z" /></clipPath><clipPath
       id="clipPath30"
       clipPathUnits="userSpaceOnUse"><path
         id="path28"
         d="M 54,36 H 388.8 V 253.44 H 54 Z" /></clipPath><clipPath
       id="clipPath40"
       clipPathUnits="userSpaceOnUse"><path
         id="path38"
         d="M 54,36 H 388.8 V 253.44 H 54 Z" /></clipPath><clipPath
       id="clipPath50"
       clipPathUnits="userSpaceOnUse"><path
         id="path48"
         d="M 54,36 H 388.8 V 253.44 H 54 Z" /></clipPath><clipPath
       id="clipPath178"
       clipPathUnits="userSpaceOnUse"><path
         id="path176"
         d="M 54,36 H 388.8 V 253.44 H 54 Z" /></clipPath><clipPath
       id="clipPath188"
       clipPathUnits="userSpaceOnUse"><path
         id="path186"
         d="M 54,36 H 388.8 V 253.44 H 54 Z" /></clipPath><clipPath
       id="clipPath198"
       clipPathUnits="userSpaceOnUse"><path
         id="path196"
         d="M 54,36 H 388.8 V 253.44 H 54 Z" /></clipPath></defs><g
     transform="matrix(1.3333333,0,0,-1.3333333,0,384)"
     id="g10"><path
       id="path12"
       style="fill:#ffffff;fill-opacity:1;fill-rule:nonzero;stroke:none"
       d="M 54,36 H 388.8 V 253.44 H 54 Z" /><g
       id="g14"><g
         clip-path="url(#clipPath20)"
         id="g16"><path
           id="path22"
           style="fill:#8b0000;fill-opacity:1;fill-rule:nonzero;stroke:#8b0000;stroke-width:1;stroke-linecap:butt;stroke-linejoin:round;stroke-miterlimit:10;stroke-dasharray:none;stroke-opacity:1"
           d="m 54,36 v 217.44 h 10.8 10.8 10.8 10.8 10.8 10.8 10.8 10.8 10.8 10.8 10.8 10.8 10.8 10.8 10.8 10.8 10.8 10.8 10.8 10.8 10.8 10.8 10.8 10.8 10.8 10.8 10.8 10.8 10.8 10.8 10.8 V 36 36 H 378 367.2 356.4 345.6 334.8 324 313.2 302.4 291.6 280.8 270 259.2 248.4 237.6 226.8 216 205.2 194.4 183.6 172.8 162 151.2 140.4 129.6 118.8 108 97.2 86.4 75.6 64.8 Z" /></g></g><g
       id="g24"><g
         clip-path="url(#clipPath30)"
         id="g26"><path
           id="path32"
           style="fill:#ff4500;fill-opacity:1;fill-rule:nonzero;stroke:#ff4500;stroke-width:1;stroke-linecap:butt;stroke-linejoin:round;stroke-miterlimit:10;stroke-dasharray:none;stroke-opacity:1"
           d="m 54,36 v 50.383023 l 10.8,16.587917 10.8,19.23119 10.8,20.82553 10.8,20.9505 10.8,19.57113 10.8,17.05718 10.8,13.9902 10.8,10.91419 10.8,8.18652 10.8,5.96141 10.8,4.24812 10.8,2.98075 10.8,2.06885 10.8,1.4251 10.8,0.97655 10.8,0.66679 10.8,0.45418 10.8,0.30885 10.8,0.20977 10.8,0.14238 10.8,0.0966 10.8,0.0655 10.8,0.0444 10.8,0.0301 10.8,0.0204 10.8,0.0138 10.8,0.009 10.8,0.006 10.8,0.004 10.8,0.003 10.8,0.002 v -217.43585 0 H 378 367.2 356.4 345.6 334.8 324 313.2 302.4 291.6 280.8 270 259.2 248.4 237.6 226.8 216 205.2 194.4 183.6 172.8 162 151.2 140.4 129.6 118.8 L 108,36 H 97.2 86.4 75.6 64.8 Z" /></g></g><g
       id="g34"><g
         clip-path="url(#clipPath40)"
         id="g36"><path
           id="path42"
           style="fill:#ff8c00;fill-opacity:1;fill-rule:nonzero;stroke:#ff8c00;stroke-width:1;stroke-linecap:butt;stroke-linejoin:round;stroke-miterlimit:10;stroke-dasharray:none;stroke-opacity:1"
           d="m 54,36 v 0 H 64.8 75.6 86.4 97.2 108 l 10.8,4.3488 10.8,2.008549 10.8,2.89594 10.8,4.131468 10.8,5.806072 10.8,7.989171 10.8,10.679923 10.8,13.738334 10.8,16.824143 10.8,19.40471 10.8,20.89289 10.8,20.89289 10.8,19.4047 10.8,16.82415 10.8,13.73834 10.8,10.67992 10.8,7.98917 10.8,5.80607 10.8,4.13147 10.8,2.89594 10.8,2.00855 10.8,1.38288 10.8,0.94731 10.8,0.64667 10.8,0.4404 10.8,0.29945 V 36 36 H 378 367.2 356.4 345.6 334.8 324 313.2 302.4 291.6 280.8 270 259.2 248.4 237.6 226.8 216 205.2 194.4 183.6 172.8 162 151.2 140.4 129.6 118.8 108 97.2 86.4 75.6 64.8 Z" /></g></g><g
       id="g44"><g
         clip-path="url(#clipPath50)"
         id="g46"><path
           id="path52"
           style="fill:#ffd700;fill-opacity:1;fill-rule:nonzero;stroke:#ffd700;stroke-width:1;stroke-linecap:butt;stroke-linejoin:round;stroke-miterlimit:10;stroke-dasharray:none;stroke-opacity:1"
           d="m 54,36 v 0 h 10.8 10.8 10.8 10.8 10.8 10.8 10.8 10.8 10.8 10.8 10.8 10.8 10.8 10.8 10.8 10.8 10.8 10.8 10.8 10.8 l 10.8,4.3488 10.8,2.008549 10.8,2.89594 10.8,4.131468 10.8,5.806072 10.8,7.989171 10.8,10.679923 10.8,13.738334 10.8,16.824143 10.8,19.40471 10.8,20.89289 V 36 36 H 378 367.2 356.4 345.6 334.8 324 313.2 302.4 291.6 280.8 270 259.2 248.4 237.6 226.8 216 205.2 194.4 183.6 172.8 162 151.2 140.4 129.6 118.8 L 108,36 H 97.2 86.4 75.6 64.8 Z" /></g></g><g
       id="g54"><path
         id="path56"
         style="fill:#000000;fill-opacity:1;fill-rule:nonzero;stroke:#000000;stroke-width:0.80000001;stroke-linecap:butt;stroke-linejoin:round;stroke-miterlimit:10;stroke-dasharray:none;stroke-opacity:1"
         d="M 64.8,36 V 32.5" /><g
         transform="translate(52.08125,21.40625)"
         id="g58"><text
           id="text62"
           style="font-variant:normal;font-weight:normal;font-size:10px;font-family:'DejaVu Sans';-inkscape-font-specification:DejaVuSans;writing-mode:lr-tb;fill:#000000;fill-opacity:1;fill-rule:nonzero;stroke:none"
           transform="scale(1,-1)"><tspan
             id="tspan60"
             y="0"
             x="0 6.3600001 12.72 19.08">2020</tspan></text>
</g><path
         id="path64"
         style="fill:#000000;fill-opacity:1;fill-rule:nonzero;stroke:#000000;stroke-width:0.80000001;stroke-linecap:butt;stroke-linejoin:round;stroke-miterlimit:10;stroke-dasharray:none;stroke-opacity:1"
         d="M 118.8,36 V 32.5" /><g
         transform="translate(106.08125,21.40625)"
         id="g66"><text
           id="text70"
           style="font-variant:normal;font-weight:normal;font-size:10px;font-family:'DejaVu Sans';-inkscape-font-specification:DejaVuSans;writing-mode:lr-tb;fill:#000000;fill-opacity:1;fill-rule:nonzero;stroke:none"
           transform="scale(1,-1)"><tspan
             id="tspan68"
             y="0"
             x="0 6.3600001 12.72 19.08">2025</tspan></text>
</g><path
         id="path72"
         style="fill:#000000;fill-opacity:1;fill-rule:nonzero;stroke:#000000;stroke-width:0.80000001;stroke-linecap:butt;stroke-linejoin:round;stroke-miterlimit:10;stroke-dasharray:none;stroke-opacity:1"
         d="M 172.8,36 V 32.5" /><g
         transform="translate(160.08125,21.40625)"
         id="g74"><text
           id="text78"
           style="font-variant:normal;font-weight:normal;font-size:10px;font-family:'DejaVu Sans';-inkscape-font-specification:DejaVuSans;writing-mode:lr-tb;fill:#000000;fill-opacity:1;fill-rule:nonzero;stroke:none"
           transform="scale(1,-1)"><tspan
             id="tspan76"
             y="0"
             x="0 6.3600001 12.72 19.08">2030</tspan></text>
</g><path
         id="path80"
         style="fill:#000000;fill-opacity:1;fill-rule:nonzero;stroke:#000000;stroke-width:0.80000001;stroke-linecap:butt;stroke-linejoin:round;stroke-miterlimit:10;stroke-dasharray:none;stroke-opacity:1"
         d="M 226.8,36 V 32.5" /><g
         transform="translate(214.08125,21.40625)"
         id="g82"><text
           id="text86"
           style="font-variant:normal;font-weight:normal;font-size:10px;font-family:'DejaVu Sans';-inkscape-font-specification:DejaVuSans;writing-mode:lr-tb;fill:#000000;fill-opacity:1;fill-rule:nonzero;stroke:none"
           transform="scale(1,-1)"><tspan
             id="tspan84"
             y="0"
             x="0 6.3600001 12.72 19.08">2035</tspan></text>
</g><path
         id="path88"
         style="fill:#000000;fill-opacity:1;fill-rule:nonzero;stroke:#000000;stroke-width:0.80000001;stroke-linecap:butt;stroke-linejoin:round;stroke-miterlimit:10;stroke-dasharray:none;stroke-opacity:1"
         d="M 280.8,36 V 32.5" /><g
         transform="translate(268.08125,21.40625)"
         id="g90"><text
           id="text94"
           style="font-variant:normal;font-weight:normal;font-size:10px;font-family:'DejaVu Sans';-inkscape-font-specification:DejaVuSans;writing-mode:lr-tb;fill:#000000;fill-opacity:1;fill-rule:nonzero;stroke:none"
           transform="scale(1,-1)"><tspan
             id="tspan92"
             y="0"
             x="0 6.3600001 12.72 19.08">2040</tspan></text>
</g><path
         id="path96"
         style="fill:#000000;fill-opacity:1;fill-rule:nonzero;stroke:#000000;stroke-width:0.80000001;stroke-linecap:butt;stroke-linejoin:round;stroke-miterlimit:10;stroke-dasharray:none;stroke-opacity:1"
         d="M 334.8,36 V 32.5" /><g
         transform="translate(322.08125,21.40625)"
         id="g98"><text
           id="text102"
           style="font-variant:normal;font-weight:normal;font-size:10px;font-family:'DejaVu Sans';-inkscape-font-specification:DejaVuSans;writing-mode:lr-tb;fill:#000000;fill-opacity:1;fill-rule:nonzero;stroke:none"
           transform="scale(1,-1)"><tspan
             id="tspan100"
             y="0"
             x="0 6.3600001 12.72 19.08">2045</tspan></text>
</g><path
         id="path104"
         style="fill:#000000;fill-opacity:1;fill-rule:nonzero;stroke:#000000;stroke-width:0.80000001;stroke-linecap:butt;stroke-linejoin:round;stroke-miterlimit:10;stroke-dasharray:none;stroke-opacity:1"
         d="M 388.8,36 V 32.5" /><g
         transform="translate(376.08125,21.40625)"
         id="g106"><text
           id="text110"
           style="font-variant:normal;font-weight:normal;font-size:10px;font-family:'DejaVu Sans';-inkscape-font-specification:DejaVuSans;writing-mode:lr-tb;fill:#000000;fill-opacity:1;fill-rule:nonzero;stroke:none"
           transform="scale(1,-1)"><tspan
             id="tspan108"
             y="0"
             x="0 6.3600001 12.72 19.08">2050</tspan></text>
</g><g
         transform="translate(210.8375,7.734375)"
         id="g112"><text
           id="text116"
           style="font-variant:normal;font-weight:normal;font-size:10px;font-family:'DejaVu Sans';-inkscape-font-specification:DejaVuSans;writing-mode:lr-tb;fill:#000000;fill-opacity:1;fill-rule:nonzero;stroke:none"
           transform="scale(1,-1)"><tspan
             id="tspan114"
             y="0"
             x="0 4.7818751 10.931875 17.061874">Year</tspan></text>
</g><path
         id="path118"
         style="fill:#000000;fill-opacity:1;fill-rule:nonzero;stroke:#000000;stroke-width:0.80000001;stroke-linecap:butt;stroke-linejoin:round;stroke-miterlimit:10;stroke-dasharray:none;stroke-opacity:1"
         d="M 54,36 H 50.5" /><g
         transform="translate(40.640625,32.203125)"
         id="g120"><text
           id="text124"
           style="font-variant:normal;font-weight:normal;font-size:10px;font-family:'DejaVu Sans';-inkscape-font-specification:DejaVuSans;writing-mode:lr-tb;fill:#000000;fill-opacity:1;fill-rule:nonzero;stroke:none"
           transform="scale(1,-1)"><tspan
             id="tspan122"
             y="0"
             x="0">0</tspan></text>
</g><path
         id="path126"
         style="fill:#000000;fill-opacity:1;fill-rule:nonzero;stroke:#000000;stroke-width:0.80000001;stroke-linecap:butt;stroke-linejoin:round;stroke-miterlimit:10;stroke-dasharray:none;stroke-opacity:1"
         d="M 54,79.488 H 50.5" /><g
         transform="translate(34.28125,75.691125)"
         id="g128"><text
           id="text132"
           style="font-variant:normal;font-weight:normal;font-size:10px;font-family:'DejaVu Sans';-inkscape-font-specification:DejaVuSans;writing-mode:lr-tb;fill:#000000;fill-opacity:1;fill-rule:nonzero;stroke:none"
           transform="scale(1,-1)"><tspan
             id="tspan130"
             y="0"
             x="0 6.3600001">20</tspan></text>
</g><path
         id="path134"
         style="fill:#000000;fill-opacity:1;fill-rule:nonzero;stroke:#000000;stroke-width:0.80000001;stroke-linecap:butt;stroke-linejoin:round;stroke-miterlimit:10;stroke-dasharray:none;stroke-opacity:1"
         d="M 54,122.976 H 50.5" /><g
         transform="translate(34.28125,119.17913)"
         id="g136"><text
           id="text140"
           style="font-variant:normal;font-weight:normal;font-size:10px;font-family:'DejaVu Sans';-inkscape-font-specification:DejaVuSans;writing-mode:lr-tb;fill:#000000;fill-opacity:1;fill-rule:nonzero;stroke:none"
           transform="scale(1,-1)"><tspan
             id="tspan138"
             y="0"
             x="0 6.3600001">40</tspan></text>
</g><path
         id="path142"
         style="fill:#000000;fill-opacity:1;fill-rule:nonzero;stroke:#000000;stroke-width:0.80000001;stroke-linecap:butt;stroke-linejoin:round;stroke-miterlimit:10;stroke-dasharray:none;stroke-opacity:1"
         d="M 54,166.464 H 50.5" /><g
         transform="translate(34.28125,162.66712)"
         id="g144"><text
           id="text148"
           style="font-variant:normal;font-weight:normal;font-size:10px;font-family:'DejaVu Sans';-inkscape-font-specification:DejaVuSans;writing-mode:lr-tb;fill:#000000;fill-opacity:1;fill-rule:nonzero;stroke:none"
           transform="scale(1,-1)"><tspan
             id="tspan146"
             y="0"
             x="0 6.3600001">60</tspan></text>
</g><path
         id="path150"
         style="fill:#000000;fill-opacity:1;fill-rule:nonzero;stroke:#000000;stroke-width:0.80000001;stroke-linecap:butt;stroke-linejoin:round;stroke-miterlimit:10;stroke-dasharray:none;stroke-opacity:1"
         d="M 54,209.952 H 50.5" /><g
         transform="translate(34.28125,206.15512)"
         id="g152"><text
           id="text156"
           style="font-variant:normal;font-weight:normal;font-size:10px;font-family:'DejaVu Sans';-inkscape-font-specification:DejaVuSans;writing-mode:lr-tb;fill:#000000;fill-opacity:1;fill-rule:nonzero;stroke:none"
           transform="scale(1,-1)"><tspan
             id="tspan154"
             y="0"
             x="0 6.3600001">80</tspan></text>
</g><path
         id="path158"
         style="fill:#000000;fill-opacity:1;fill-rule:nonzero;stroke:#000000;stroke-width:0.80000001;stroke-linecap:butt;stroke-linejoin:round;stroke-miterlimit:10;stroke-dasharray:none;stroke-opacity:1"
         d="M 54,253.44 H 50.5" /><g
         transform="translate(27.921875,249.64312)"
         id="g160"><text
           id="text164"
           style="font-variant:normal;font-weight:normal;font-size:10px;font-family:'DejaVu Sans';-inkscape-font-specification:DejaVuSans;writing-mode:lr-tb;fill:#000000;fill-opacity:1;fill-rule:nonzero;stroke:none"
           transform="scale(1,-1)"><tspan
             id="tspan162"
             y="0"
             x="0 6.3600001 12.72">100</tspan></text>
</g><g
         transform="rotate(90,-17.430313,39.274062)"
         id="g166"><text
           id="text170"
           style="font-variant:normal;font-weight:normal;font-size:10px;font-family:'DejaVu Sans';-inkscape-font-specification:DejaVuSans;writing-mode:lr-tb;fill:#000000;fill-opacity:1;fill-rule:nonzero;stroke:none"
           transform="scale(1,-1)"><tspan
             id="tspan168"
             y="0"
             x="0 7.6999998 10.48 15.69 19.610001 23.719999 26.5 32.849998 39.189999 43.110001 45.889999 52.009998 58.349998 61.529999 67.650002 71.169998 74.349998 78.269997 84.610001 90.760002 93.940002 100.07 102.85 106.74125 112.24125 116.35125 122.48125 125.82938 129.74937 132.92938 136.44937 139.22937 145.37938 151.52937 155.44937 158.62938 162.52937 172.02937">Distribution of the aircraft fleet [%]</tspan></text>
</g></g><g
       id="g172"><g
         clip-path="url(#clipPath178)"
         id="g174"><path
           id="path180"
           style="fill:none;stroke:#000000;stroke-width:1.5;stroke-linecap:butt;stroke-linejoin:round;stroke-miterlimit:10;stroke-dasharray:5.55, 2.4;stroke-dashoffset:0;stroke-opacity:1"
           d="m 54,86.383023 10.8,16.587917 10.8,19.23119 10.8,20.82553 10.8,20.9505 10.8,19.57113 10.8,17.05718 10.8,13.9902 10.8,10.91419 10.8,8.18652 10.8,5.96141 10.8,4.24812 10.8,2.98075 10.8,2.06885 10.8,1.4251 10.8,0.97655 10.8,0.66679 10.8,0.45418 10.8,0.30885 10.8,0.20977 10.8,0.14238 10.8,0.0966 10.8,0.0655 10.8,0.0444 10.8,0.0301 10.8,0.0204 10.8,0.0138 10.8,0.009 10.8,0.006 10.8,0.004 10.8,0.003 10.8,0.002" /></g></g><g
       id="g182"><g
         clip-path="url(#clipPath188)"
         id="g184"><path
           id="path190"
           style="fill:none;stroke:#000000;stroke-width:1.5;stroke-linecap:butt;stroke-linejoin:round;stroke-miterlimit:10;stroke-dasharray:5.55, 2.4;stroke-dashoffset:0;stroke-opacity:1"
           d="m 108,36 10.8,4.3488 10.8,2.008549 10.8,2.89594 10.8,4.131468 10.8,5.806072 10.8,7.989171 10.8,10.679923 10.8,13.738334 10.8,16.824143 10.8,19.40471 10.8,20.89289 10.8,20.89289 10.8,19.4047 10.8,16.82415 10.8,13.73834 10.8,10.67992 10.8,7.98917 10.8,5.80607 10.8,4.13147 10.8,2.89594 10.8,2.00855 10.8,1.38288 10.8,0.94731 10.8,0.64667 10.8,0.4404 10.8,0.29945" /></g></g><g
       id="g192"><g
         clip-path="url(#clipPath198)"
         id="g194"><path
           id="path200"
           style="fill:none;stroke:#000000;stroke-width:1.5;stroke-linecap:butt;stroke-linejoin:round;stroke-miterlimit:10;stroke-dasharray:5.55, 2.4;stroke-dashoffset:0;stroke-opacity:1"
           d="m 270,36 10.8,4.3488 10.8,2.008549 10.8,2.89594 10.8,4.131468 10.8,5.806072 10.8,7.989171 10.8,10.679923 10.8,13.738334 10.8,16.824143 10.8,19.40471 10.8,20.89289" /></g></g><g
       id="g202"><path
         id="path204"
         style="fill:none;stroke:#000000;stroke-width:0.80000001;stroke-linecap:square;stroke-linejoin:miter;stroke-miterlimit:10;stroke-dasharray:none;stroke-opacity:1"
         d="M 54,36 V 253.44" /><path
         id="path206"
         style="fill:none;stroke:#000000;stroke-width:0.80000001;stroke-linecap:square;stroke-linejoin:miter;stroke-miterlimit:10;stroke-dasharray:none;stroke-opacity:1"
         d="M 388.8,36 V 253.44" /><path
         id="path208"
         style="fill:none;stroke:#000000;stroke-width:0.80000001;stroke-linecap:square;stroke-linejoin:miter;stroke-miterlimit:10;stroke-dasharray:none;stroke-opacity:1"
         d="M 54,36 H 388.8" /><path
         id="path210"
         style="fill:none;stroke:#000000;stroke-width:0.80000001;stroke-linecap:square;stroke-linejoin:miter;stroke-miterlimit:10;stroke-dasharray:none;stroke-opacity:1"
         d="M 54,253.44 H 388.8" /><path
         id="path212"
         style="fill:#ffffff;fill-opacity:0.8;fill-rule:nonzero;stroke:#cccccc;stroke-width:1;stroke-linecap:butt;stroke-linejoin:miter;stroke-miterlimit:10;stroke-dasharray:none;stroke-opacity:0.8"
         d="m 59.6,200.04 h 84.5375 c 1.06667,0 1.6,0.53333 1.6,1.6 v 46.2 c 0,1.06667 -0.53333,1.6 -1.6,1.6 H 59.6 c -1.066667,0 -1.6,-0.53333 -1.6,-1.6 v -46.2 c 0,-1.06667 0.533333,-1.6 1.6,-1.6 z" /><path
         id="path214"
         style="fill:#8b0000;fill-opacity:1;fill-rule:nonzero;stroke:#8b0000;stroke-width:1;stroke-linecap:butt;stroke-linejoin:miter;stroke-miterlimit:10;stroke-dasharray:none;stroke-opacity:1"
         d="m 61.2,240.16187 h 16 v 5.6 h -16 z" /><g
         transform="translate(83.6,240.16187)"
         id="g216"><text
           id="text220"
           style="font-variant:normal;font-weight:normal;font-size:8px;font-family:'DejaVu Sans';-inkscape-font-specification:DejaVuSans;writing-mode:lr-tb;fill:#000000;fill-opacity:1;fill-rule:nonzero;stroke:none"
           transform="scale(1,-1)"><tspan
             id="tspan218"
             y="0"
             x="0 6.296 8.5200005 13.6 16.143999 21.048 23.271999 26.388124 30.788124 34.076126 38.980125 41.655499">Old aircraft</tspan></text>
</g><path
         id="path222"
         style="fill:#ff4500;fill-opacity:1;fill-rule:nonzero;stroke:#ff4500;stroke-width:1;stroke-linecap:butt;stroke-linejoin:miter;stroke-miterlimit:10;stroke-dasharray:none;stroke-opacity:1"
         d="m 61.2,228.41187 h 16 v 5.6 h -16 z" /><g
         transform="translate(83.6,228.41187)"
         id="g224"><text
           id="text228"
           style="font-variant:normal;font-weight:normal;font-size:8px;font-family:'DejaVu Sans';-inkscape-font-specification:DejaVuSans;writing-mode:lr-tb;fill:#000000;fill-opacity:1;fill-rule:nonzero;stroke:none"
           transform="scale(1,-1)"><tspan
             id="tspan226"
             y="0"
             x="0 5.2006249 10.120625 14.520625 19.440624 24.512625 27.648624 30.192625 35.096626 37.320625 40.436749 44.83675 48.124748 53.028751 55.704124">Recent aircraft</tspan></text>
</g><path
         id="path230"
         style="fill:#ff8c00;fill-opacity:1;fill-rule:nonzero;stroke:#ff8c00;stroke-width:1;stroke-linecap:butt;stroke-linejoin:miter;stroke-miterlimit:10;stroke-dasharray:none;stroke-opacity:1"
         d="m 61.2,216.66187 h 16 v 5.6 h -16 z" /><g
         transform="translate(83.6,216.66187)"
         id="g232"><text
           id="text236"
           style="font-variant:normal;font-weight:normal;font-size:8px;font-family:'DejaVu Sans';-inkscape-font-specification:DejaVuSans;writing-mode:lr-tb;fill:#000000;fill-opacity:1;fill-rule:nonzero;stroke:none"
           transform="scale(1,-1)"><tspan
             id="tspan234"
             y="0"
             x="0 5.9840002 10.904 17.448 19.992001 24.896 27.120001 30.236126 34.636124 37.924126 42.828125 45.503502 48.6395 51.183498">New aircraft 1</tspan></text>
</g><path
         id="path238"
         style="fill:#ffd700;fill-opacity:1;fill-rule:nonzero;stroke:#ffd700;stroke-width:1;stroke-linecap:butt;stroke-linejoin:miter;stroke-miterlimit:10;stroke-dasharray:none;stroke-opacity:1"
         d="m 61.2,204.91187 h 16 v 5.6 h -16 z" /><g
         transform="translate(83.6,204.91187)"
         id="g240"><text
           id="text244"
           style="font-variant:normal;font-weight:normal;font-size:8px;font-family:'DejaVu Sans';-inkscape-font-specification:DejaVuSans;writing-mode:lr-tb;fill:#000000;fill-opacity:1;fill-rule:nonzero;stroke:none"
           transform="scale(1,-1)"><tspan
             id="tspan242"
             y="0"
             x="0 5.9840002 10.904 17.448 19.992001 24.896 27.120001 30.236126 34.636124 37.924126 42.828125 45.503502 48.6395 51.183498">New aircraft 2</tspan></text>
</g></g></g></svg>