<?xml version="1.0" encoding="UTF-8" standalone="no"?>
<svg
   xmlns:dc="http://purl.org/dc/elements/1.1/"
   xmlns:cc="http://creativecommons.org/ns#"
   xmlns:rdf="http://www.w3.org/1999/02/22-rdf-syntax-ns#"
   xmlns:svg="http://www.w3.org/2000/svg"
   xmlns="http://www.w3.org/2000/svg"
   viewBox="0 0 576 384"
   height="384"
   width="576"
   xml:space="preserve"
   id="svg2"
   version="1.1"><metadata
     id="metadata8"><rdf:RDF><cc:Work
         rdf:about=""><dc:format>image/svg+xml</dc:format><dc:type
           rdf:resource="http://purl.org/dc/dcmitype/StillImage" /></cc:Work></rdf:RDF></metadata><defs
     id="defs6"><clipPath
       id="clipPath20"
       clipPathUnits="userSpaceOnUse"><path
         id="path18"
         d="M 54,36 H 388.8 V 253.44 H 54 Z" /></clipPath><clipPath
       id="clipPath30"
       clipPathUnits="userSpaceOnUse"><path
         id="path28"
         d="M 54,36 H 388.8 V 253.44 H 54 Z" /></clipPath><clipPath
       id="clipPath40"
       clipPathUnits="userSpaceOnUse"><path
         id="path38"
         d="M 54,36 H 388.8 V 253.44 H 54 Z" /></clipPath><clipPath
       id="clipPath50"
       clipPathUnits="userSpaceOnUse"><path
         id="path48"
         d="M 54,36 H 388.8 V 253.44 H 54 Z" /></clipPath><clipPath
       id="clipPath60"
       clipPathUnits="userSpaceOnUse"><path
         id="path58"
         d="M 54,36 H 388.8 V 253.44 H 54 Z" /></clipPath><clipPath
       id="clipPath188"
       clipPathUnits="userSpaceOnUse"><path
         id="path186"
         d="M 54,36 H 388.8 V 253.44 H 54 Z" /></clipPath><clipPath
       id="clipPath198"
       clipPathUnits="userSpaceOnUse"><path
         id="path196"
         d="M 54,36 H 388.8 V 253.44 H 54 Z" /></clipPath><clipPath
       id="clipPath208"
       clipPathUnits="userSpaceOnUse"><path
         id="path206"
         d="M 54,36 H 388.8 V 253.44 H 54 Z" /></clipPath><clipPath
       id="clipPath218"
       clipPathUnits="userSpaceOnUse"><path
         id="path216"
         d="M 54,36 H 388.8 V 253.44 H 54 Z" /></clipPath></defs><g
     transform="matrix(1.3333333,0,0,-1.3333333,0,384)"
     id="g10"><path
       id="path12"
       style="fill:#ffffff;fill-opacity:1;fill-rule:nonzero;stroke:none"
       d="M 54,36 H 388.8 V 253.44 H 54 Z" /><g
       id="g14"><g
         clip-path="url(#clipPath20)"
         id="g16"><path
           id="path22"
           style="fill:#8b0000;fill-opacity:1;fill-rule:nonzero;stroke:#8b0000;stroke-width:1;stroke-linecap:butt;stroke-linejoin:round;stroke-miterlimit:10;stroke-dasharray:none;stroke-opacity:1"
           d="m 54,36 v 217.44 h 10.8 10.8 10.8 10.8 10.8 10.8 10.8 10.8 10.8 10.8 10.8 10.8 10.8 10.8 10.8 10.8 10.8 10.8 10.8 10.8 10.8 10.8 10.8 10.8 10.8 10.8 10.8 10.8 10.8 10.8 10.8 V 36 36 H 378 367.2 356.4 345.6 334.8 324 313.2 302.4 291.6 280.8 270 259.2 248.4 237.6 226.8 216 205.2 194.4 183.6 172.8 162 151.2 140.4 129.6 118.8 108 97.2 86.4 75.6 64.8 Z" /></g></g><g
       id="g24"><g
         clip-path="url(#clipPath30)"
         id="g26"><path
           id="path32"
           style="fill:#ff4500;fill-opacity:1;fill-rule:nonzero;stroke:#ff4500;stroke-width:1;stroke-linecap:butt;stroke-linejoin:round;stroke-miterlimit:10;stroke-dasharray:none;stroke-opacity:1"
           d="m 54,36 v 50.383023 l 10.8,16.587917 10.8,19.23119 10.8,20.82553 10.8,20.9505 10.8,19.57113 10.8,17.05718 10.8,13.9902 10.8,10.91419 10.8,8.18652 10.8,5.96141 10.8,4.24812 10.8,2.98075 10.8,2.06885 10.8,1.4251 10.8,0.97655 10.8,0.68094 10.8,0.45408 10.8,0.30867 10.8,0.20952 10.8,0.142 10.8,0.096 10.8,0.0648 10.8,0.0435 10.8,0.029 10.8,0.0191 10.8,0.0124 10.8,0.008 10.8,0.005 10.8,0.003 10.8,0.002 10.8,0.001 v -217.43766 0 H 378 367.2 356.4 345.6 334.8 324 313.2 302.4 291.6 280.8 270 259.2 248.4 237.6 226.8 216 205.2 194.4 183.6 172.8 162 151.2 140.4 129.6 118.8 L 108,36 H 97.2 86.4 75.6 64.8 Z" /></g></g><g
       id="g34"><g
         clip-path="url(#clipPath40)"
         id="g36"><path
           id="path42"
           style="fill:#ff8c00;fill-opacity:1;fill-rule:nonzero;stroke:#ff8c00;stroke-width:1;stroke-linecap:butt;stroke-linejoin:round;stroke-miterlimit:10;stroke-dasharray:none;stroke-opacity:1"
           d="m 54,36 v 0 H 64.8 75.6 86.4 97.2 108 l 10.8,4.3488 10.8,2.008549 10.8,2.89594 10.8,4.131468 10.8,5.806072 10.8,7.989171 10.8,10.679923 10.8,13.738334 10.8,16.824143 10.8,19.40471 10.8,21.98009 10.8,21.0896 10.8,19.57667 10.8,16.95637 10.8,13.82096 10.8,10.70795 10.8,7.96114 10.8,5.72345 10.8,3.99925 10.8,2.72397 10.8,1.81184 10.8,1.17965 10.8,0.75504 10.8,0.47816 10.8,0.30188 10.8,0.19132 V 36 36 H 378 367.2 356.4 345.6 334.8 324 313.2 302.4 291.6 280.8 270 259.2 248.4 237.6 226.8 216 205.2 194.4 183.6 172.8 162 151.2 140.4 129.6 118.8 L 108,36 H 97.2 86.4 75.6 64.8 Z" /></g></g><g
       id="g44"><g
         clip-path="url(#clipPath50)"
         id="g46"><path
           id="path52"
           style="fill:#ffd700;fill-opacity:1;fill-rule:nonzero;stroke:#ffd700;stroke-width:1;stroke-linecap:butt;stroke-linejoin:round;stroke-miterlimit:10;stroke-dasharray:none;stroke-opacity:1"
           d="m 54,36 v 0 h 10.8 10.8 10.8 10.8 10.8 10.8 10.8 10.8 10.8 10.8 10.8 10.8 10.8 10.8 10.8 l 10.8,2.1744 10.8,1.004275 10.8,1.44797 10.8,2.065734 10.8,2.903035 10.8,8.071586 10.8,7.06685 10.8,9.22067 10.8,11.535532 10.8,13.738607 10.8,15.516341 10.8,16.63749 10.8,17.04371 10.8,16.82415 10.8,16.09932 10.8,14.93533 V 36 36 H 378 367.2 356.4 345.6 334.8 324 313.2 302.4 291.6 280.8 270 259.2 248.4 237.6 226.8 216 205.2 194.4 183.6 172.8 162 151.2 140.4 129.6 118.8 108 97.2 86.4 75.6 64.8 Z" /></g></g><g
       id="g54"><g
         clip-path="url(#clipPath60)"
         id="g56"><path
           id="path62"
           style="fill:#4169e1;fill-opacity:1;fill-rule:nonzero;stroke:#4169e1;stroke-width:1;stroke-linecap:butt;stroke-linejoin:round;stroke-miterlimit:10;stroke-dasharray:none;stroke-opacity:1"
           d="m 54,36 v 0 h 10.8 10.8 10.8 10.8 10.8 10.8 10.8 10.8 10.8 10.8 10.8 10.8 10.8 10.8 10.8 l 10.8,2.1744 10.8,1.004275 10.8,1.44797 10.8,2.065734 10.8,2.903035 10.8,3.994586 10.8,5.339961 10.8,6.869167 10.8,8.412074 10.8,9.702353 10.8,10.446445 10.8,10.44644 10.8,9.70236 10.8,8.41207 10.8,6.86917 10.8,5.33996 V 36 36 H 378 367.2 356.4 345.6 334.8 324 313.2 302.4 291.6 280.8 270 259.2 248.4 237.6 226.8 216 205.2 194.4 183.6 172.8 162 151.2 140.4 129.6 118.8 108 97.2 86.4 75.6 64.8 Z" /></g></g><g
       id="g64"><path
         id="path66"
         style="fill:#000000;fill-opacity:1;fill-rule:nonzero;stroke:#000000;stroke-width:0.80000001;stroke-linecap:butt;stroke-linejoin:round;stroke-miterlimit:10;stroke-dasharray:none;stroke-opacity:1"
         d="M 64.8,36 V 32.5" /><g
         transform="translate(52.08125,21.40625)"
         id="g68"><text
           id="text72"
           style="font-variant:normal;font-weight:normal;font-size:10px;font-family:'DejaVu Sans';-inkscape-font-specification:DejaVuSans;writing-mode:lr-tb;fill:#000000;fill-opacity:1;fill-rule:nonzero;stroke:none"
           transform="scale(1,-1)"><tspan
             id="tspan70"
             y="0"
             x="0 6.3600001 12.72 19.08">2020</tspan></text>
</g><path
         id="path74"
         style="fill:#000000;fill-opacity:1;fill-rule:nonzero;stroke:#000000;stroke-width:0.80000001;stroke-linecap:butt;stroke-linejoin:round;stroke-miterlimit:10;stroke-dasharray:none;stroke-opacity:1"
         d="M 118.8,36 V 32.5" /><g
         transform="translate(106.08125,21.40625)"
         id="g76"><text
           id="text80"
           style="font-variant:normal;font-weight:normal;font-size:10px;font-family:'DejaVu Sans';-inkscape-font-specification:DejaVuSans;writing-mode:lr-tb;fill:#000000;fill-opacity:1;fill-rule:nonzero;stroke:none"
           transform="scale(1,-1)"><tspan
             id="tspan78"
             y="0"
             x="0 6.3600001 12.72 19.08">2025</tspan></text>
</g><path
         id="path82"
         style="fill:#000000;fill-opacity:1;fill-rule:nonzero;stroke:#000000;stroke-width:0.80000001;stroke-linecap:butt;stroke-linejoin:round;stroke-miterlimit:10;stroke-dasharray:none;stroke-opacity:1"
         d="M 172.8,36 V 32.5" /><g
         transform="translate(160.08125,21.40625)"
         id="g84"><text
           id="text88"
           style="font-variant:normal;font-weight:normal;font-size:10px;font-family:'DejaVu Sans';-inkscape-font-specification:DejaVuSans;writing-mode:lr-tb;fill:#000000;fill-opacity:1;fill-rule:nonzero;stroke:none"
           transform="scale(1,-1)"><tspan
             id="tspan86"
             y="0"
             x="0 6.3600001 12.72 19.08">2030</tspan></text>
</g><path
         id="path90"
         style="fill:#000000;fill-opacity:1;fill-rule:nonzero;stroke:#000000;stroke-width:0.80000001;stroke-linecap:butt;stroke-linejoin:round;stroke-miterlimit:10;stroke-dasharray:none;stroke-opacity:1"
         d="M 226.8,36 V 32.5" /><g
         transform="translate(214.08125,21.40625)"
         id="g92"><text
           id="text96"
           style="font-variant:normal;font-weight:normal;font-size:10px;font-family:'DejaVu Sans';-inkscape-font-specification:DejaVuSans;writing-mode:lr-tb;fill:#000000;fill-opacity:1;fill-rule:nonzero;stroke:none"
           transform="scale(1,-1)"><tspan
             id="tspan94"
             y="0"
             x="0 6.3600001 12.72 19.08">2035</tspan></text>
</g><path
         id="path98"
         style="fill:#000000;fill-opacity:1;fill-rule:nonzero;stroke:#000000;stroke-width:0.80000001;stroke-linecap:butt;stroke-linejoin:round;stroke-miterlimit:10;stroke-dasharray:none;stroke-opacity:1"
         d="M 280.8,36 V 32.5" /><g
         transform="translate(268.08125,21.40625)"
         id="g100"><text
           id="text104"
           style="font-variant:normal;font-weight:normal;font-size:10px;font-family:'DejaVu Sans';-inkscape-font-specification:DejaVuSans;writing-mode:lr-tb;fill:#000000;fill-opacity:1;fill-rule:nonzero;stroke:none"
           transform="scale(1,-1)"><tspan
             id="tspan102"
             y="0"
             x="0 6.3600001 12.72 19.08">2040</tspan></text>
</g><path
         id="path106"
         style="fill:#000000;fill-opacity:1;fill-rule:nonzero;stroke:#000000;stroke-width:0.80000001;stroke-linecap:butt;stroke-linejoin:round;stroke-miterlimit:10;stroke-dasharray:none;stroke-opacity:1"
         d="M 334.8,36 V 32.5" /><g
         transform="translate(322.08125,21.40625)"
         id="g108"><text
           id="text112"
           style="font-variant:normal;font-weight:normal;font-size:10px;font-family:'DejaVu Sans';-inkscape-font-specification:DejaVuSans;writing-mode:lr-tb;fill:#000000;fill-opacity:1;fill-rule:nonzero;stroke:none"
           transform="scale(1,-1)"><tspan
             id="tspan110"
             y="0"
             x="0 6.3600001 12.72 19.08">2045</tspan></text>
</g><path
         id="path114"
         style="fill:#000000;fill-opacity:1;fill-rule:nonzero;stroke:#000000;stroke-width:0.80000001;stroke-linecap:butt;stroke-linejoin:round;stroke-miterlimit:10;stroke-dasharray:none;stroke-opacity:1"
         d="M 388.8,36 V 32.5" /><g
         transform="translate(376.08125,21.40625)"
         id="g116"><text
           id="text120"
           style="font-variant:normal;font-weight:normal;font-size:10px;font-family:'DejaVu Sans';-inkscape-font-specification:DejaVuSans;writing-mode:lr-tb;fill:#000000;fill-opacity:1;fill-rule:nonzero;stroke:none"
           transform="scale(1,-1)"><tspan
             id="tspan118"
             y="0"
             x="0 6.3600001 12.72 19.08">2050</tspan></text>
</g><g
         transform="translate(210.8375,7.734375)"
         id="g122"><text
           id="text126"
           style="font-variant:normal;font-weight:normal;font-size:10px;font-family:'DejaVu Sans';-inkscape-font-specification:DejaVuSans;writing-mode:lr-tb;fill:#000000;fill-opacity:1;fill-rule:nonzero;stroke:none"
           transform="scale(1,-1)"><tspan
             id="tspan124"
             y="0"
             x="0 4.7818751 10.931875 17.061874">Year</tspan></text>
</g><path
         id="path128"
         style="fill:#000000;fill-opacity:1;fill-rule:nonzero;stroke:#000000;stroke-width:0.80000001;stroke-linecap:butt;stroke-linejoin:round;stroke-miterlimit:10;stroke-dasharray:none;stroke-opacity:1"
         d="M 54,36 H 50.5" /><g
         transform="translate(40.640625,32.203125)"
         id="g130"><text
           id="text134"
           style="font-variant:normal;font-weight:normal;font-size:10px;font-family:'DejaVu Sans';-inkscape-font-specification:DejaVuSans;writing-mode:lr-tb;fill:#000000;fill-opacity:1;fill-rule:nonzero;stroke:none"
           transform="scale(1,-1)"><tspan
             id="tspan132"
             y="0"
             x="0">0</tspan></text>
</g><path
         id="path136"
         style="fill:#000000;fill-opacity:1;fill-rule:nonzero;stroke:#000000;stroke-width:0.80000001;stroke-linecap:butt;stroke-linejoin:round;stroke-miterlimit:10;stroke-dasharray:none;stroke-opacity:1"
         d="M 54,79.488 H 50.5" /><g
         transform="translate(34.28125,75.691125)"
         id="g138"><text
           id="text142"
           style="font-variant:normal;font-weight:normal;font-size:10px;font-family:'DejaVu Sans';-inkscape-font-specification:DejaVuSans;writing-mode:lr-tb;fill:#000000;fill-opacity:1;fill-rule:nonzero;stroke:none"
           transform="scale(1,-1)"><tspan
             id="tspan140"
             y="0"
             x="0 6.3600001">20</tspan></text>
</g><path
         id="path144"
         style="fill:#000000;fill-opacity:1;fill-rule:nonzero;stroke:#000000;stroke-width:0.80000001;stroke-linecap:butt;stroke-linejoin:round;stroke-miterlimit:10;stroke-dasharray:none;stroke-opacity:1"
         d="M 54,122.976 H 50.5" /><g
         transform="translate(34.28125,119.17913)"
         id="g146"><text
           id="text150"
           style="font-variant:normal;font-weight:normal;font-size:10px;font-family:'DejaVu Sans';-inkscape-font-specification:DejaVuSans;writing-mode:lr-tb;fill:#000000;fill-opacity:1;fill-rule:nonzero;stroke:none"
           transform="scale(1,-1)"><tspan
             id="tspan148"
             y="0"
             x="0 6.3600001">40</tspan></text>
</g><path
         id="path152"
         style="fill:#000000;fill-opacity:1;fill-rule:nonzero;stroke:#000000;stroke-width:0.80000001;stroke-linecap:butt;stroke-linejoin:round;stroke-miterlimit:10;stroke-dasharray:none;stroke-opacity:1"
         d="M 54,166.464 H 50.5" /><g
         transform="translate(34.28125,162.66712)"
         id="g154"><text
           id="text158"
           style="font-variant:normal;font-weight:normal;font-size:10px;font-family:'DejaVu Sans';-inkscape-font-specification:DejaVuSans;writing-mode:lr-tb;fill:#000000;fill-opacity:1;fill-rule:nonzero;stroke:none"
           transform="scale(1,-1)"><tspan
             id="tspan156"
             y="0"
             x="0 6.3600001">60</tspan></text>
</g><path
         id="path160"
         style="fill:#000000;fill-opacity:1;fill-rule:nonzero;stroke:#000000;stroke-width:0.80000001;stroke-linecap:butt;stroke-linejoin:round;stroke-miterlimit:10;stroke-dasharray:none;stroke-opacity:1"
         d="M 54,209.952 H 50.5" /><g
         transform="translate(34.28125,206.15512)"
         id="g162"><text
           id="text166"
           style="font-variant:normal;font-weight:normal;font-size:10px;font-family:'DejaVu Sans';-inkscape-font-specification:DejaVuSans;writing-mode:lr-tb;fill:#000000;fill-opacity:1;fill-rule:nonzero;stroke:none"
           transform="scale(1,-1)"><tspan
             id="tspan164"
             y="0"
             x="0 6.3600001">80</tspan></text>
</g><path
         id="path168"
         style="fill:#000000;fill-opacity:1;fill-rule:nonzero;stroke:#000000;stroke-width:0.80000001;stroke-linecap:butt;stroke-linejoin:round;stroke-miterlimit:10;stroke-dasharray:none;stroke-opacity:1"
         d="M 54,253.44 H 50.5" /><g
         transform="translate(27.921875,249.64312)"
         id="g170"><text
           id="text174"
           style="font-variant:normal;font-weight:normal;font-size:10px;font-family:'DejaVu Sans';-inkscape-font-specification:DejaVuSans;writing-mode:lr-tb;fill:#000000;fill-opacity:1;fill-rule:nonzero;stroke:none"
           transform="scale(1,-1)"><tspan
             id="tspan172"
             y="0"
             x="0 6.3600001 12.72">100</tspan></text>
</g><g
         transform="rotate(90,-17.430313,39.274062)"
         id="g176"><text
           id="text180"
           style="font-variant:normal;font-weight:normal;font-size:10px;font-family:'DejaVu Sans';-inkscape-font-specification:DejaVuSans;writing-mode:lr-tb;fill:#000000;fill-opacity:1;fill-rule:nonzero;stroke:none"
           transform="scale(1,-1)"><tspan
             id="tspan178"
             y="0"
             x="0 7.6999998 10.48 15.69 19.610001 23.719999 26.5 32.849998 39.189999 43.110001 45.889999 52.009998 58.349998 61.529999 67.650002 71.169998 74.349998 78.269997 84.610001 90.760002 93.940002 100.07 102.85 106.74125 112.24125 116.35125 122.48125 125.82938 129.74937 132.92938 136.44937 139.22937 145.37938 151.52937 155.44937 158.62938 162.52937 172.02937">Distribution of the aircraft fleet [%]</tspan></text>
</g></g><g
       id="g182"><g
         clip-path="url(#clipPath188)"
         id="g184"><path
           id="path190"
           style="fill:none;stroke:#000000;stroke-width:1.5;stroke-linecap:butt;stroke-linejoin:round;stroke-miterlimit:10;stroke-dasharray:5.55, 2.4;stroke-dashoffset:0;stroke-opacity:1"
           d="m 54,86.383023 10.8,16.587917 10.8,19.23119 10.8,20.82553 10.8,20.9505 10.8,19.57113 10.8,17.05718 10.8,13.9902 10.8,10.91419 10.8,8.18652 10.8,5.96141 10.8,4.24812 10.8,2.98075 10.8,2.06885 10.8,1.4251 10.8,0.97655 10.8,0.68094 10.8,0.45408 10.8,0.30867 10.8,0.20952 10.8,0.142 10.8,0.096 10.8,0.0648 10.8,0.0435 10.8,0.029 10.8,0.0191 10.8,0.0124 10.8,0.008 10.8,0.005 10.8,0.003 10.8,0.002 10.8,0.001" /></g></g><g
       id="g192"><g
         clip-path="url(#clipPath198)"
         id="g194"><path
           id="path200"
           style="fill:none;stroke:#000000;stroke-width:1.5;stroke-linecap:butt;stroke-linejoin:round;stroke-miterlimit:10;stroke-dasharray:5.55, 2.4;stroke-dashoffset:0;stroke-opacity:1"
           d="m 108,36 10.8,4.3488 10.8,2.008549 10.8,2.89594 10.8,4.131468 10.8,5.806072 10.8,7.989171 10.8,10.679923 10.8,13.738334 10.8,16.824143 10.8,19.40471 10.8,21.98009 10.8,21.0896 10.8,19.57667 10.8,16.95637 10.8,13.82096 10.8,10.70795 10.8,7.96114 10.8,5.72345 10.8,3.99925 10.8,2.72397 10.8,1.81184 10.8,1.17965 10.8,0.75504 10.8,0.47816 10.8,0.30188 10.8,0.19132" /></g></g><g
       id="g202"><g
         clip-path="url(#clipPath208)"
         id="g204"><path
           id="path210"
           style="fill:none;stroke:#000000;stroke-width:1.5;stroke-linecap:butt;stroke-linejoin:round;stroke-miterlimit:10;stroke-dasharray:5.55, 2.4;stroke-dashoffset:0;stroke-opacity:1"
           d="m 270,45.595414 10.8,8.071586 10.8,7.06685 10.8,9.22067 10.8,11.535532 10.8,13.738607 10.8,15.516341 10.8,16.63749 10.8,17.04371 10.8,16.82415 10.8,16.09932 10.8,14.93533" /></g></g><g
       id="g212"><g
         clip-path="url(#clipPath218)"
         id="g214"><path
           id="path220"
           style="fill:none;stroke:#000000;stroke-width:1.5;stroke-linecap:square;stroke-linejoin:round;stroke-miterlimit:10;stroke-dasharray:none;stroke-opacity:1"
           d="m 216,36 10.8,2.1744 10.8,1.004275 10.8,1.44797 10.8,2.065734 10.8,2.903035 10.8,3.994586 10.8,5.339961 10.8,6.869167 10.8,8.412074 10.8,9.702353 10.8,10.446445 10.8,10.44644 10.8,9.70236 10.8,8.41207 10.8,6.86917 10.8,5.33996" /></g></g><g
       id="g222"><path
         id="path224"
         style="fill:none;stroke:#000000;stroke-width:0.80000001;stroke-linecap:square;stroke-linejoin:miter;stroke-miterlimit:10;stroke-dasharray:none;stroke-opacity:1"
         d="M 54,36 V 253.44" /><path
         id="path226"
         style="fill:none;stroke:#000000;stroke-width:0.80000001;stroke-linecap:square;stroke-linejoin:miter;stroke-miterlimit:10;stroke-dasharray:none;stroke-opacity:1"
         d="M 388.8,36 V 253.44" /><path
         id="path228"
         style="fill:none;stroke:#000000;stroke-width:0.80000001;stroke-linecap:square;stroke-linejoin:miter;stroke-miterlimit:10;stroke-dasharray:none;stroke-opacity:1"
         d="M 54,36 H 388.8" /><path
         id="path230"
         style="fill:none;stroke:#000000;stroke-width:0.80000001;stroke-linecap:square;stroke-linejoin:miter;stroke-miterlimit:10;stroke-dasharray:none;stroke-opacity:1"
         d="M 54,253.44 H 388.8" /><path
         id="path232"
         style="fill:#ffffff;fill-opacity:0.8;fill-rule:nonzero;stroke:#cccccc;stroke-width:1;stroke-linecap:butt;stroke-linejoin:miter;stroke-miterlimit:10;stroke-dasharray:none;stroke-opacity:0.8"
         d="m 59.6,188.29 h 126.58437 c 1.06667,0 1.6,0.53333 1.6,1.6 v 57.95 c 0,1.06667 -0.53333,1.6 -1.6,1.6 L 59.6,249.44 c -1.066667,0 -1.6,-0.53333 -1.6,-1.6 v -57.95 c 0,-1.06667 0.533333,-1.6 1.6,-1.6 z" /><path
         id="path234"
         style="fill:#8b0000;fill-opacity:1;fill-rule:nonzero;stroke:#8b0000;stroke-width:1;stroke-linecap:butt;stroke-linejoin:miter;stroke-miterlimit:10;stroke-dasharray:none;stroke-opacity:1"
         d="m 61.2,240.16187 h 16 v 5.6 h -16 z" /><g
         transform="translate(83.6,240.16187)"
         id="g236"><text
           id="text240"
           style="font-variant:normal;font-weight:normal;font-size:8px;font-family:'DejaVu Sans';-inkscape-font-specification:DejaVuSans;writing-mode:lr-tb;fill:#000000;fill-opacity:1;fill-rule:nonzero;stroke:none"
           transform="scale(1,-1)"><tspan
             id="tspan238"
             y="0"
             x="0 6.296 8.5200005 13.6 16.143999 21.048 23.271999 26.388124 30.788124 34.076126 38.980125 41.655499">Old aircraft</tspan></text>
</g><path
         id="path242"
         style="fill:#ff4500;fill-opacity:1;fill-rule:nonzero;stroke:#ff4500;stroke-width:1;stroke-linecap:butt;stroke-linejoin:miter;stroke-miterlimit:10;stroke-dasharray:none;stroke-opacity:1"
         d="m 61.2,228.41187 h 16 v 5.6 h -16 z" /><g
         transform="translate(83.6,228.41187)"
         id="g244"><text
           id="text248"
           style="font-variant:normal;font-weight:normal;font-size:8px;font-family:'DejaVu Sans';-inkscape-font-specification:DejaVuSans;writing-mode:lr-tb;fill:#000000;fill-opacity:1;fill-rule:nonzero;stroke:none"
           transform="scale(1,-1)"><tspan
             id="tspan246"
             y="0"
             x="0 5.2006249 10.120625 14.520625 19.440624 24.512625 27.648624 30.192625 35.096626 37.320625 40.436749 44.83675 48.124748 53.028751 55.704124">Recent aircraft</tspan></text>
</g><path
         id="path250"
         style="fill:#ff8c00;fill-opacity:1;fill-rule:nonzero;stroke:#ff8c00;stroke-width:1;stroke-linecap:butt;stroke-linejoin:miter;stroke-miterlimit:10;stroke-dasharray:none;stroke-opacity:1"
         d="m 61.2,216.66187 h 16 v 5.6 h -16 z" /><g
         transform="translate(83.6,216.66187)"
         id="g252"><text
           id="text256"
           style="font-variant:normal;font-weight:normal;font-size:8px;font-family:'DejaVu Sans';-inkscape-font-specification:DejaVuSans;writing-mode:lr-tb;fill:#000000;fill-opacity:1;fill-rule:nonzero;stroke:none"
           transform="scale(1,-1)"><tspan
             id="tspan254"
             y="0"
             x="0 5.9840002 10.904 17.448 19.992001 24.896 27.120001 30.236126 34.636124 37.924126 42.828125 45.503502 48.6395 51.183498">New aircraft 1</tspan></text>
</g><path
         id="path258"
         style="fill:#ffd700;fill-opacity:1;fill-rule:nonzero;stroke:#ffd700;stroke-width:1;stroke-linecap:butt;stroke-linejoin:miter;stroke-miterlimit:10;stroke-dasharray:none;stroke-opacity:1"
         d="m 61.2,204.91187 h 16 v 5.6 h -16 z" /><g
         transform="translate(83.6,204.91187)"
         id="g260"><text
           id="text264"
           style="font-variant:normal;font-weight:normal;font-size:8px;font-family:'DejaVu Sans';-inkscape-font-specification:DejaVuSans;writing-mode:lr-tb;fill:#000000;fill-opacity:1;fill-rule:nonzero;stroke:none"
           transform="scale(1,-1)"><tspan
             id="tspan262"
             y="0"
             x="0 5.9840002 10.904 17.448 19.992001 24.896 27.120001 30.236126 34.636124 37.924126 42.828125 45.503502 48.6395 51.183498">New aircraft 2</tspan></text>
</g><path
         id="path266"
         style="fill:#4169e1;fill-opacity:1;fill-rule:nonzero;stroke:#4169e1;stroke-width:1;stroke-linecap:butt;stroke-linejoin:miter;stroke-miterlimit:10;stroke-dasharray:none;stroke-opacity:1"
         d="m 61.2,193.16187 h 16 v 5.6 h -16 z" /><g
         transform="translate(83.6,193.16187)"
         id="g268"><text
           id="text272"
           style="font-variant:normal;font-weight:normal;font-size:8px;font-family:'DejaVu Sans';-inkscape-font-specification:DejaVuSans;writing-mode:lr-tb;fill:#000000;fill-opacity:1;fill-rule:nonzero;stroke:none"
           transform="scale(1,-1)"><tspan
             id="tspan270"
             y="0"
             x="0 5.9840002 10.904 17.448 19.992001 24.16 29.232 34.312 38.712002 43.616001 46.751999 51.672001 56.751999 61.647999 64.935997 69.671997 72.216003 77.120003 79.344002 82.460129 86.860123 90.148125 95.052124 97.727501">New subcategory aircraft</tspan></text>
</g></g></g></svg>